<mxfile host="app.diagrams.net" modified="2023-12-12T12:13:05.408Z" agent="Mozilla/5.0 (Windows NT 10.0; Win64; x64) AppleWebKit/537.36 (KHTML, like Gecko) Chrome/119.0.0.0 Safari/537.36" etag="gvyL18-_RWtuQNs51p3-" version="22.1.7" type="github">
  <diagram name="Страница — 1" id="Ipm3lWXLyAhJRRHfVkjc">
    <mxGraphModel dx="1050" dy="565" grid="1" gridSize="10" guides="1" tooltips="1" connect="1" arrows="1" fold="1" page="1" pageScale="1" pageWidth="827" pageHeight="1169" math="0" shadow="0">
      <root>
        <mxCell id="0" />
        <mxCell id="1" parent="0" />
        <mxCell id="dkb06LC9kJ7bP2gEYbqL-3" value="" style="edgeStyle=orthogonalEdgeStyle;rounded=0;orthogonalLoop=1;jettySize=auto;html=1;" edge="1" parent="1" source="dkb06LC9kJ7bP2gEYbqL-1" target="dkb06LC9kJ7bP2gEYbqL-2">
          <mxGeometry relative="1" as="geometry" />
        </mxCell>
        <mxCell id="dkb06LC9kJ7bP2gEYbqL-1" value="Beginning" style="ellipse;whiteSpace=wrap;html=1;" vertex="1" parent="1">
          <mxGeometry x="350" y="40" width="120" height="40" as="geometry" />
        </mxCell>
        <mxCell id="dkb06LC9kJ7bP2gEYbqL-5" value="" style="edgeStyle=orthogonalEdgeStyle;rounded=0;orthogonalLoop=1;jettySize=auto;html=1;" edge="1" parent="1" source="dkb06LC9kJ7bP2gEYbqL-2" target="dkb06LC9kJ7bP2gEYbqL-4">
          <mxGeometry relative="1" as="geometry" />
        </mxCell>
        <mxCell id="dkb06LC9kJ7bP2gEYbqL-2" value="int n, number, sum=0" style="rounded=0;whiteSpace=wrap;html=1;" vertex="1" parent="1">
          <mxGeometry x="350" y="100" width="120" height="40" as="geometry" />
        </mxCell>
        <mxCell id="dkb06LC9kJ7bP2gEYbqL-7" value="" style="edgeStyle=orthogonalEdgeStyle;rounded=0;orthogonalLoop=1;jettySize=auto;html=1;" edge="1" parent="1" source="dkb06LC9kJ7bP2gEYbqL-4" target="dkb06LC9kJ7bP2gEYbqL-6">
          <mxGeometry relative="1" as="geometry" />
        </mxCell>
        <mxCell id="dkb06LC9kJ7bP2gEYbqL-4" value="Input n" style="shape=parallelogram;perimeter=parallelogramPerimeter;whiteSpace=wrap;html=1;fixedSize=1;" vertex="1" parent="1">
          <mxGeometry x="360" y="170" width="100" height="40" as="geometry" />
        </mxCell>
        <mxCell id="dkb06LC9kJ7bP2gEYbqL-9" value="" style="edgeStyle=orthogonalEdgeStyle;rounded=0;orthogonalLoop=1;jettySize=auto;html=1;" edge="1" parent="1" source="dkb06LC9kJ7bP2gEYbqL-6" target="dkb06LC9kJ7bP2gEYbqL-8">
          <mxGeometry relative="1" as="geometry" />
        </mxCell>
        <mxCell id="dkb06LC9kJ7bP2gEYbqL-6" value="for(int i=0; i&amp;lt;n; i++)" style="shape=hexagon;perimeter=hexagonPerimeter2;whiteSpace=wrap;html=1;fixedSize=1;" vertex="1" parent="1">
          <mxGeometry x="350" y="240" width="120" height="40" as="geometry" />
        </mxCell>
        <mxCell id="dkb06LC9kJ7bP2gEYbqL-11" value="" style="edgeStyle=orthogonalEdgeStyle;rounded=0;orthogonalLoop=1;jettySize=auto;html=1;" edge="1" parent="1" source="dkb06LC9kJ7bP2gEYbqL-8" target="dkb06LC9kJ7bP2gEYbqL-10">
          <mxGeometry relative="1" as="geometry" />
        </mxCell>
        <mxCell id="dkb06LC9kJ7bP2gEYbqL-8" value="Input number" style="shape=parallelogram;perimeter=parallelogramPerimeter;whiteSpace=wrap;html=1;fixedSize=1;" vertex="1" parent="1">
          <mxGeometry x="360" y="310" width="100" height="40" as="geometry" />
        </mxCell>
        <mxCell id="dkb06LC9kJ7bP2gEYbqL-13" value="" style="edgeStyle=orthogonalEdgeStyle;rounded=0;orthogonalLoop=1;jettySize=auto;html=1;" edge="1" parent="1" source="dkb06LC9kJ7bP2gEYbqL-10" target="dkb06LC9kJ7bP2gEYbqL-12">
          <mxGeometry relative="1" as="geometry" />
        </mxCell>
        <mxCell id="dkb06LC9kJ7bP2gEYbqL-10" value="number%2=0" style="rhombus;whiteSpace=wrap;html=1;" vertex="1" parent="1">
          <mxGeometry x="480" y="300" width="90" height="60" as="geometry" />
        </mxCell>
        <mxCell id="dkb06LC9kJ7bP2gEYbqL-12" value="sum=sum+number" style="rounded=0;whiteSpace=wrap;html=1;" vertex="1" parent="1">
          <mxGeometry x="595" y="315" width="110" height="30" as="geometry" />
        </mxCell>
        <mxCell id="dkb06LC9kJ7bP2gEYbqL-14" value="" style="endArrow=classic;html=1;rounded=0;exitX=0.5;exitY=0;exitDx=0;exitDy=0;" edge="1" parent="1" source="dkb06LC9kJ7bP2gEYbqL-10">
          <mxGeometry width="50" height="50" relative="1" as="geometry">
            <mxPoint x="390" y="320" as="sourcePoint" />
            <mxPoint x="525" y="260" as="targetPoint" />
          </mxGeometry>
        </mxCell>
        <mxCell id="dkb06LC9kJ7bP2gEYbqL-15" value="" style="endArrow=classic;html=1;rounded=0;entryX=1;entryY=0.5;entryDx=0;entryDy=0;" edge="1" parent="1" target="dkb06LC9kJ7bP2gEYbqL-6">
          <mxGeometry width="50" height="50" relative="1" as="geometry">
            <mxPoint x="650" y="260" as="sourcePoint" />
            <mxPoint x="440" y="270" as="targetPoint" />
          </mxGeometry>
        </mxCell>
        <mxCell id="dkb06LC9kJ7bP2gEYbqL-16" value="" style="endArrow=classic;html=1;rounded=0;exitX=0.5;exitY=0;exitDx=0;exitDy=0;" edge="1" parent="1" source="dkb06LC9kJ7bP2gEYbqL-12">
          <mxGeometry width="50" height="50" relative="1" as="geometry">
            <mxPoint x="395" y="320" as="sourcePoint" />
            <mxPoint x="650" y="260" as="targetPoint" />
          </mxGeometry>
        </mxCell>
        <mxCell id="dkb06LC9kJ7bP2gEYbqL-19" value="" style="edgeStyle=orthogonalEdgeStyle;rounded=0;orthogonalLoop=1;jettySize=auto;html=1;" edge="1" parent="1" source="dkb06LC9kJ7bP2gEYbqL-17" target="dkb06LC9kJ7bP2gEYbqL-18">
          <mxGeometry relative="1" as="geometry" />
        </mxCell>
        <mxCell id="dkb06LC9kJ7bP2gEYbqL-17" value="Output sum" style="shape=parallelogram;perimeter=parallelogramPerimeter;whiteSpace=wrap;html=1;fixedSize=1;" vertex="1" parent="1">
          <mxGeometry x="360" y="400" width="100" height="40" as="geometry" />
        </mxCell>
        <mxCell id="dkb06LC9kJ7bP2gEYbqL-18" value="End" style="ellipse;whiteSpace=wrap;html=1;" vertex="1" parent="1">
          <mxGeometry x="350" y="460" width="120" height="40" as="geometry" />
        </mxCell>
        <mxCell id="dkb06LC9kJ7bP2gEYbqL-20" value="" style="endArrow=classic;html=1;rounded=0;exitX=0;exitY=0.5;exitDx=0;exitDy=0;" edge="1" parent="1" source="dkb06LC9kJ7bP2gEYbqL-6">
          <mxGeometry width="50" height="50" relative="1" as="geometry">
            <mxPoint x="390" y="260" as="sourcePoint" />
            <mxPoint x="310" y="260" as="targetPoint" />
          </mxGeometry>
        </mxCell>
        <mxCell id="dkb06LC9kJ7bP2gEYbqL-21" value="" style="endArrow=none;html=1;rounded=0;" edge="1" parent="1">
          <mxGeometry width="50" height="50" relative="1" as="geometry">
            <mxPoint x="310" y="380" as="sourcePoint" />
            <mxPoint x="310" y="260" as="targetPoint" />
          </mxGeometry>
        </mxCell>
        <mxCell id="dkb06LC9kJ7bP2gEYbqL-22" value="" style="endArrow=none;html=1;rounded=0;" edge="1" parent="1">
          <mxGeometry width="50" height="50" relative="1" as="geometry">
            <mxPoint x="310" y="380" as="sourcePoint" />
            <mxPoint x="410" y="380" as="targetPoint" />
          </mxGeometry>
        </mxCell>
        <mxCell id="dkb06LC9kJ7bP2gEYbqL-23" value="" style="endArrow=classic;html=1;rounded=0;entryX=0.5;entryY=0;entryDx=0;entryDy=0;" edge="1" parent="1" target="dkb06LC9kJ7bP2gEYbqL-17">
          <mxGeometry width="50" height="50" relative="1" as="geometry">
            <mxPoint x="410" y="380" as="sourcePoint" />
            <mxPoint x="440" y="210" as="targetPoint" />
          </mxGeometry>
        </mxCell>
        <mxCell id="dkb06LC9kJ7bP2gEYbqL-24" value="True" style="text;html=1;strokeColor=none;fillColor=none;align=center;verticalAlign=middle;whiteSpace=wrap;rounded=0;" vertex="1" parent="1">
          <mxGeometry x="410" y="285" width="60" height="30" as="geometry" />
        </mxCell>
        <mxCell id="dkb06LC9kJ7bP2gEYbqL-25" value="True" style="text;html=1;strokeColor=none;fillColor=none;align=center;verticalAlign=middle;whiteSpace=wrap;rounded=0;" vertex="1" parent="1">
          <mxGeometry x="550" y="300" width="60" height="30" as="geometry" />
        </mxCell>
        <mxCell id="dkb06LC9kJ7bP2gEYbqL-26" value="False" style="text;html=1;strokeColor=none;fillColor=none;align=center;verticalAlign=middle;whiteSpace=wrap;rounded=0;" vertex="1" parent="1">
          <mxGeometry x="310" y="230" width="60" height="30" as="geometry" />
        </mxCell>
        <mxCell id="dkb06LC9kJ7bP2gEYbqL-27" value="False" style="text;html=1;strokeColor=none;fillColor=none;align=center;verticalAlign=middle;whiteSpace=wrap;rounded=0;" vertex="1" parent="1">
          <mxGeometry x="520" y="270" width="60" height="30" as="geometry" />
        </mxCell>
      </root>
    </mxGraphModel>
  </diagram>
</mxfile>
